<svg xmlns="http://www.w3.org/2000/svg" width="45.907" height="51" viewBox="0 0 45.907 51">
  <path id="Subtraction_1" data-name="Subtraction 1" d="M-619.1,817A15.881,15.881,0,0,1-635,801.174a15.841,15.841,0,0,1,3.541-9.974,15.938,15.938,0,0,1,9.031-5.5l.328,2.942a12.85,12.85,0,0,0-9.931,12.537A12.924,12.924,0,0,0-619.1,814.06a12.928,12.928,0,0,0,8.625-3.293,12.915,12.915,0,0,0,4.152-7.6h3a15.786,15.786,0,0,1-5.271,9.844A15.906,15.906,0,0,1-619.1,817Zm30.007-3.564h-7.122l-2.949-14.012a1.829,1.829,0,0,0-1.724-1.465h-9.961a5.489,5.489,0,0,1-5.507-4.834l-1.8-16.16-.361-.105a5.577,5.577,0,0,1-4.008-5.318A5.564,5.564,0,0,1-616.955,766a5.565,5.565,0,0,1,5.574,5.543,5.536,5.536,0,0,1-3.42,5.111l-.39.163.951,8.529h10.628v2.94h-10.3l.5,4.517a2.5,2.5,0,0,0,2.557,2.216h9.961a4.779,4.779,0,0,1,4.628,3.8L-593.8,810.5h4.71v2.939Zm-27.861-44.5a2.607,2.607,0,0,0-2.6,2.6,2.607,2.607,0,0,0,2.6,2.6,2.607,2.607,0,0,0,2.606-2.6A2.607,2.607,0,0,0-616.955,768.94Z" transform="translate(635 -766)" fill="#00b9f2"/>
</svg>
