<svg xmlns="http://www.w3.org/2000/svg" width="22.644" height="22.644" viewBox="0 0 22.644 22.644">
  <path id="_001-facebook" data-name="001-facebook" d="M19.595,0H3.053A3.051,3.051,0,0,0,0,3.051V19.593a3.051,3.051,0,0,0,3.051,3.051h8.158l.014-8.092h-2.1a.5.5,0,0,1-.5-.494l-.01-2.608a.5.5,0,0,1,.5-.5h2.1V8.432c0-2.925,1.786-4.517,4.4-4.517h2.141a.5.5,0,0,1,.5.5v2.2a.5.5,0,0,1-.5.5H16.434c-1.419,0-1.694.674-1.694,1.664v2.182h3.118a.5.5,0,0,1,.493.554l-.309,2.608a.5.5,0,0,1-.493.438H14.754l-.014,8.092h4.854a3.051,3.051,0,0,0,3.051-3.051V3.051A3.051,3.051,0,0,0,19.595,0Z" transform="translate(-0.002)" fill="#fff"/>
</svg>
