<svg id="_001-linkedin-logo" data-name="001-linkedin-logo" xmlns="http://www.w3.org/2000/svg" width="23" height="23" viewBox="0 0 23 23">
  <g id="post-linkedin">
    <path id="Path_54084" data-name="Path 54084" d="M20.7,0H2.3A2.307,2.307,0,0,0,0,2.3V20.7A2.307,2.307,0,0,0,2.3,23H20.7A2.307,2.307,0,0,0,23,20.7V2.3A2.307,2.307,0,0,0,20.7,0ZM6.9,19.55H3.45V9.2H6.9ZM5.175,7.245a2.07,2.07,0,1,1,2.07-2.07A2.061,2.061,0,0,1,5.175,7.245ZM19.55,19.55H16.1v-6.1a1.725,1.725,0,0,0-3.45,0v6.1H9.2V9.2h3.45v1.38a3.715,3.715,0,0,1,2.875-1.61A4.075,4.075,0,0,1,19.55,13Z" fill="#fff"/>
  </g>
</svg>
