<svg id="_002-instagram" data-name="002-instagram" xmlns="http://www.w3.org/2000/svg" width="22.64" height="22.644" viewBox="0 0 22.64 22.644">
  <path id="Path_54089" data-name="Path 54089" d="M23.031,6.657A8.274,8.274,0,0,0,22.5,3.91,5.8,5.8,0,0,0,19.191.6,8.3,8.3,0,0,0,16.444.071C15.232.013,14.847,0,11.773,0S8.314.013,7.106.066A8.277,8.277,0,0,0,4.359.593,5.525,5.525,0,0,0,2.351,1.9a5.575,5.575,0,0,0-1.3,2A8.3,8.3,0,0,0,.519,6.653C.462,7.865.449,8.25.449,11.324s.013,3.459.066,4.667a8.274,8.274,0,0,0,.527,2.747,5.8,5.8,0,0,0,3.313,3.313,8.3,8.3,0,0,0,2.747.526c1.207.053,1.592.066,4.667.066s3.459-.013,4.667-.066a8.272,8.272,0,0,0,2.747-.526A5.792,5.792,0,0,0,22.5,18.738a8.3,8.3,0,0,0,.526-2.747c.053-1.208.066-1.592.066-4.667s0-3.459-.058-4.667ZM20.992,15.9A6.207,6.207,0,0,1,20.6,18a3.756,3.756,0,0,1-2.15,2.15,6.229,6.229,0,0,1-2.1.389c-1.194.053-1.553.066-4.574.066S8.393,20.6,7.2,20.543a6.2,6.2,0,0,1-2.1-.389,3.484,3.484,0,0,1-1.3-.845,3.521,3.521,0,0,1-.845-1.3,6.23,6.23,0,0,1-.389-2.1c-.053-1.194-.066-1.553-.066-4.574s.013-3.384.066-4.574a6.2,6.2,0,0,1,.389-2.1,3.442,3.442,0,0,1,.849-1.3,3.515,3.515,0,0,1,1.3-.845,6.233,6.233,0,0,1,2.1-.389c1.194-.053,1.553-.066,4.574-.066s3.384.013,4.574.066a6.207,6.207,0,0,1,2.1.389,3.482,3.482,0,0,1,1.3.845,3.52,3.52,0,0,1,.845,1.3,6.232,6.232,0,0,1,.389,2.1c.053,1.194.066,1.553.066,4.574s-.013,3.375-.066,4.57Zm0,0" transform="translate(-0.449 0)" fill="#fff"/>
  <path id="Path_54090" data-name="Path 54090" d="M130.766,124.5a5.817,5.817,0,1,0,5.817,5.817A5.818,5.818,0,0,0,130.766,124.5Zm0,9.59a3.773,3.773,0,1,1,3.773-3.773A3.774,3.774,0,0,1,130.766,134.09Zm0,0" transform="translate(-119.442 -118.993)" fill="#fff"/>
  <path id="Path_54091" data-name="Path 54091" d="M365.166,89.96a1.358,1.358,0,1,1-1.358-1.358A1.358,1.358,0,0,1,365.166,89.96Zm0,0" transform="translate(-346.436 -84.682)" fill="#fff"/>
</svg>
