<svg xmlns="http://www.w3.org/2000/svg" width="27.983" height="33.846" viewBox="0 0 27.983 33.846">
  <path id="Union_3" data-name="Union 3" d="M1125.444,798.629c-.859-.807-1.771-1.625-2.652-2.417a52.791,52.791,0,0,1-7.322-7.488,16,16,0,0,1-3.469-9.733,13.991,13.991,0,0,1,27.983,0,16,16,0,0,1-3.47,9.733,52.83,52.83,0,0,1-7.321,7.488c-.882.791-1.794,1.609-2.652,2.417a.8.8,0,0,1-1.1,0ZM1113.6,778.991c0,6.826,5.215,11.5,10.26,16.03.7.632,1.427,1.281,2.132,1.931.7-.651,1.427-1.3,2.131-1.931,5.044-4.525,10.26-9.2,10.26-16.03a12.392,12.392,0,0,0-24.783,0Zm5.729,0a6.663,6.663,0,1,1,6.664,6.664A6.671,6.671,0,0,1,1119.328,778.991Zm1.6,0a5.063,5.063,0,1,0,5.063-5.062A5.069,5.069,0,0,0,1120.928,778.991Z" transform="translate(-1112 -765)" fill="#fff"/>
</svg>
