<svg xmlns="http://www.w3.org/2000/svg" width="48.579" height="48.578" viewBox="0 0 48.579 48.578">
  <path id="Union_9" data-name="Union 9" d="M15,46.724A24.214,24.214,0,0,1,1.854,33.579l-.09-.219v0A24.281,24.281,0,0,1,14.97,1.866l.206-.1h.046A24.282,24.282,0,0,1,46.725,15l.09.222a24.282,24.282,0,0,1-13.236,31.5l-.222.09A24.2,24.2,0,0,1,15,46.724Zm.877-2.13a21.915,21.915,0,0,0,16.826,0l.009,0A21.977,21.977,0,0,0,44.592,15.878l0-.01A21.927,21.927,0,0,0,40.64,9.6l-6.4,6.4a12.909,12.909,0,0,1,1.579,2.393l2.152-.891-.4-.966a1.153,1.153,0,0,1,2.133-.877l1.682,4.061a1.153,1.153,0,0,1-2.133.876l-.4-.964-2.17.9a12.894,12.894,0,0,1-.056,7.714l2.228.923.4-.962a1.153,1.153,0,0,1,2.133.877l-1.682,4.061a1.153,1.153,0,0,1-2.133-.877l.4-.968-2.241-.928a12.906,12.906,0,0,1-5.44,5.408l.937,2.261.969-.4a1.153,1.153,0,0,1,.876,2.132l-4.061,1.683a1.153,1.153,0,0,1-.876-2.134l.962-.4-.937-2.261a12.886,12.886,0,0,1-7.672.023l-.929,2.242.964.4a1.153,1.153,0,0,1-.876,2.133L15.589,39.77a1.153,1.153,0,1,1,.876-2.133l.966.4.924-2.23a12.987,12.987,0,0,1-2.363-1.564l-6.4,6.4A22.013,22.013,0,0,0,15.877,44.594Zm0-40.605-.005,0A21.978,21.978,0,0,0,3.977,32.68l.1.2v.038a21.928,21.928,0,0,0,3.88,6.088l6.4-6.4a12.9,12.9,0,0,1-1.493-2.216l-2.171.9.4.97a1.153,1.153,0,1,1-2.133.877L7.277,29.078A1.153,1.153,0,0,1,9.41,28.2l.4.96,2.153-.892a12.89,12.89,0,0,1-.056-7.776l-2.1-.868-.4.964a1.153,1.153,0,0,1-2.133-.876l.839-2.026,0-.007.006-.014.834-2.015a1.153,1.153,0,1,1,2.133.877l-.4.966,2.083.863a12.907,12.907,0,0,1,5.512-5.546l-.852-2.057-.969.4a1.153,1.153,0,0,1-.876-2.133L19.65,7.341a1.153,1.153,0,1,1,.877,2.133l-.962.4.853,2.057a12.893,12.893,0,0,1,7.82.024L29.1,9.871l-.962-.4a1.153,1.153,0,1,1,.876-2.133l4.061,1.682a1.153,1.153,0,0,1-.876,2.133l-.969-.4-.868,2.1a12.978,12.978,0,0,1,2.245,1.508l6.4-6.4A21.958,21.958,0,0,0,15.877,3.989ZM20.212,34.13a10.624,10.624,0,0,0,8.155,0l.009,0a10.647,10.647,0,0,0,5.75-13.91l0-.009a10.646,10.646,0,0,0-1.52-2.574L17.63,32.606A10.679,10.679,0,0,0,20.212,34.13Zm0-19.672-.009,0a10.647,10.647,0,0,0-5.75,13.909l0,.009a10.643,10.643,0,0,0,1.535,2.592L30.968,16a10.644,10.644,0,0,0-10.756-1.538Z" fill="#00b9f2"/>
</svg>
