<svg id="Group_8" data-name="Group 8" xmlns="http://www.w3.org/2000/svg" width="34.174" height="34.174" viewBox="0 0 34.174 34.174">
  <path id="Ellipse_25" data-name="Ellipse 25" d="M12.087-5A17.087,17.087,0,1,1-5,12.087,17.106,17.106,0,0,1,12.087-5Zm0,32.531A15.444,15.444,0,1,0-3.357,12.087,15.461,15.461,0,0,0,12.087,27.531Z" transform="translate(5 5)" fill="#fff"/>
  <path id="Path_45" data-name="Path 45" d="M3151.776,581.544h-5.915a.821.821,0,0,1-.821-.822V571.85a.821.821,0,1,1,1.643,0V579.9h5.093a.822.822,0,1,1,0,1.643Z" transform="translate(-3128.775 -563.636)" fill="#fff"/>
</svg>
