<svg xmlns="http://www.w3.org/2000/svg" width="30.029" height="63.693" viewBox="0 0 30.029 63.693">
  <path id="Path_54141" data-name="Path 54141" d="M1247.467,2795.042a3.987,3.987,0,1,0,1.168,2.819,3.973,3.973,0,0,0-1.168-2.819m-2.819-3.482a6.3,6.3,0,1,1-4.455,1.846,6.279,6.279,0,0,1,4.455-1.846m4.908,23.756a1.847,1.847,0,0,0-1.306,3.152l0,0a1.848,1.848,0,0,0,2.614-2.614l0,0,0,0a1.83,1.83,0,0,0-1.306-.537m-2.938-1.094a4.154,4.154,0,0,1,5.881,0l0,0a4.159,4.159,0,1,1-5.879,5.883l0,0,0,0a4.159,4.159,0,0,1,0-5.883m10.006,24.088a1.157,1.157,0,1,1,0-2.313h2.1a1.157,1.157,0,0,1,1.157,1.157V2854.1a1.157,1.157,0,0,1-2.314,0v-15.785Zm-24.453,15.785a1.157,1.157,0,1,1-2.314,0v-16.941a1.157,1.157,0,0,1,1.157-1.157h2.245a1.157,1.157,0,0,1,0,2.314h-1.088Zm22.086-27.348a6.549,6.549,0,0,1-2.223,11.407l-1.407,16.037a1.157,1.157,0,0,1-2.3-.2l1.482-16.884a1.155,1.155,0,0,1,1.071-1.054,4.174,4.174,0,0,0,2.511-1.4,4.258,4.258,0,0,0,.47-4.9,4.285,4.285,0,0,0-1.226-1.349l-5.787,5.9a1.154,1.154,0,0,1-1.645-1.618l11.571-11.793a1.372,1.372,0,0,1,.113-.1.525.525,0,0,0,.24-.37,2.982,2.982,0,0,0-.195-.97l-2.973-10.572a1.262,1.262,0,0,0-.519-.684l0,0a1.92,1.92,0,0,0-1.071-.326h-15.191a1.945,1.945,0,0,0-1.015.286l-.061.044a1.258,1.258,0,0,0-.519.684l-2.973,10.572a3.31,3.31,0,0,0-.206,1.077.567.567,0,0,0,.23.431,1.153,1.153,0,1,1-1.419,1.817,2.764,2.764,0,0,1-1.116-2.112,5.287,5.287,0,0,1,.3-1.894l2.957-10.513a3.547,3.547,0,0,1,1.44-1.967c.03-.021.061-.039.092-.056a4.268,4.268,0,0,1,2.285-.681h15.192a4.281,4.281,0,0,1,2.376.738,3.54,3.54,0,0,1,1.441,1.966l2.957,10.513a4.83,4.83,0,0,1,.293,1.834,2.678,2.678,0,0,1-1.054,1.948Zm-17.532,1.97a4.292,4.292,0,0,0-.84,1.039,4.254,4.254,0,0,0,.47,4.9,4.178,4.178,0,0,0,2.547,1.406,1.154,1.154,0,0,1,1.036,1.081l1.019,16.884a1.154,1.154,0,0,1-2.3.136l-.966-16.012a6.547,6.547,0,0,1-3.131-10.5h-2.032a1.157,1.157,0,0,1,0-2.314h2.774a2.6,2.6,0,0,1,2.625,1.255c.214.244.49.557.9.971l1.212,1.212,5.584-5.584-2.091-2.09a8.381,8.381,0,0,0-.839-.018v0h-.1a1.125,1.125,0,0,1-.115-.006l-3.31-.038a1.153,1.153,0,0,1,.018-2.306l3.319.039.089,0h.1v0a3.619,3.619,0,0,1,2.475.688l2.208,2.208,0,0a2.146,2.146,0,0,1,0,3.035l-5.818,5.818,0,0,0,0a2.137,2.137,0,0,1-1.514.624v0a2.133,2.133,0,0,1-1.425-.544,1.243,1.243,0,0,1-.093-.083l-1.33-1.329c-.177-.172-.329-.335-.465-.482" transform="translate(-1229.858 -2791.56)" fill="#00b9f2"/>
</svg>
