<svg xmlns="http://www.w3.org/2000/svg" width="33.218" height="33.218" viewBox="0 0 33.218 33.218">
  <path id="Union_1" data-name="Union 1" d="M10.621,29.272,3.946,22.6a13.454,13.454,0,0,1,0-19.037.874.874,0,0,1,1.236,0l6.676,6.675a.874.874,0,0,1,0,1.236L9.632,13.7a2.271,2.271,0,0,0,0,3.214l6.675,6.675a2.27,2.27,0,0,0,3.214,0l2.225-2.225a.874.874,0,0,1,1.236,0l6.675,6.675a.874.874,0,0,1,0,1.236,13.454,13.454,0,0,1-19.037,0ZM1.748,13.078A11.638,11.638,0,0,0,5.182,21.36l6.676,6.675a11.707,11.707,0,0,0,15.924.6l-5.417-5.417-1.607,1.607a4.019,4.019,0,0,1-5.686,0L8.4,18.146a4.019,4.019,0,0,1,0-5.686L10,10.853,4.586,5.436A11.625,11.625,0,0,0,1.748,13.078Zm17.39,1a.874.874,0,0,1-.256-.618V4.022a.874.874,0,0,1,1.748,0v8.566H29.2a.874.874,0,1,1,0,1.748h-9.44A.874.874,0,0,1,19.139,14.08Zm6.221-6.389a.874.874,0,0,1,.015-1.236L31.733.249A.874.874,0,0,1,32.954,1.5L26.6,7.707a.874.874,0,0,1-1.236-.015Z" fill="#fff"/>
</svg>
