<svg xmlns="http://www.w3.org/2000/svg" width="40.692" height="60.923" viewBox="0 0 40.692 60.923">
  <path id="Path_54116" data-name="Path 54116" d="M1880.39,2795.993a4.018,4.018,0,1,0,1.177,2.841,4.006,4.006,0,0,0-1.177-2.841m-2.84-3.493a6.331,6.331,0,1,1-4.477,1.854,6.313,6.313,0,0,1,4.477-1.854m-.93,36.832a1.157,1.157,0,0,1-1.637,1.636l-9.939-9.94a1.158,1.158,0,0,1-.14-1.467l5.92-10.172a4.617,4.617,0,0,1,2.429-2.051,8.212,8.212,0,0,1,2.926-.451h2.753a4.327,4.327,0,0,1,4.045,2.046,7.474,7.474,0,0,1,.836,3.883l.056,10.1c.025.931.209,1.4.493,1.6a2.959,2.959,0,0,0,1.56.265h8.642a1.158,1.158,0,0,1,1.11.828l.732,1.944,5.855,14.522a1.154,1.154,0,0,1-2.142.859c-2.123-5.264-4.355-10.531-6.352-15.84h-7.844a4.782,4.782,0,0,1-2.9-.7,3.987,3.987,0,0,1-1.46-3.427c0-3.384-.056-6.771-.056-10.155a5.378,5.378,0,0,0-.51-2.688,2.188,2.188,0,0,0-2.066-.926h-2.753a6.03,6.03,0,0,0-2.1.3,2.371,2.371,0,0,0-1.254,1.048l-5.514,9.475Zm17.352,9.7a1.154,1.154,0,0,1,2.26.47,17.472,17.472,0,1,1-31.215-13.856,1.152,1.152,0,1,1,1.862,1.356,15.165,15.165,0,1,0,27.093,12.031" transform="translate(-1861.65 -2792.5)" fill="#00b9f2"/>
</svg>
