<svg xmlns="http://www.w3.org/2000/svg" width="34.174" height="28.259" viewBox="0 0 34.174 28.259">
  <path id="Union_2" data-name="Union 2" d="M3.779,28.259A3.783,3.783,0,0,1,0,24.48V3.779A3.783,3.783,0,0,1,3.779,0H30.4a3.783,3.783,0,0,1,3.779,3.779v20.7A3.783,3.783,0,0,1,30.4,28.259ZM1.643,3.779v20.7a2.138,2.138,0,0,0,2.136,2.136H30.4a2.138,2.138,0,0,0,2.136-2.136V3.779A2.138,2.138,0,0,0,30.4,1.643H3.779A2.138,2.138,0,0,0,1.643,3.779ZM16.6,17.617,4.774,9.014a.821.821,0,0,1,.966-1.329l11.346,8.252L28.433,7.685A.821.821,0,1,1,29.4,9.014l-11.829,8.6a.822.822,0,0,1-.966,0Z" fill="#fff"/>
</svg>
