<svg xmlns="http://www.w3.org/2000/svg" width="51.822" height="38.302" viewBox="0 0 51.822 38.302">
  <path id="Path_54139" data-name="Path 54139" d="M1255.835,3097.85a1.154,1.154,0,1,1-1.771-1.481,22.539,22.539,0,0,0,0-28.985,1.155,1.155,0,1,1,1.771-1.482,24.856,24.856,0,0,1,0,31.948m-4.892-4.1a1.155,1.155,0,1,1-1.771-1.482,16.16,16.16,0,0,0,0-20.783,1.155,1.155,0,1,1,1.771-1.481,18.478,18.478,0,0,1,0,23.746m-4.886-4.1a1.155,1.155,0,0,1-1.772-1.481,9.778,9.778,0,0,0,0-12.579,1.155,1.155,0,0,1,1.772-1.482,12.073,12.073,0,0,1,2.1,11.908,12.222,12.222,0,0,1-2.1,3.635m-21.547-14.98h-10.62a1.753,1.753,0,0,0-1.745,1.746v10.947a1.754,1.754,0,0,0,1.745,1.746h9.158v0a1.145,1.145,0,0,1,.547.138c.108.058.212.117.312.175s.2.12.318.2l13.593,9.09a.545.545,0,0,0,.263-.123,1.97,1.97,0,0,0,.484-.514,1.664,1.664,0,0,0,.318-.846v-30.689a1.788,1.788,0,0,0-.4-.955,1.893,1.893,0,0,0-.454-.449.6.6,0,0,0-.19-.095l-12.57,9.34a1.153,1.153,0,0,1-.76.286m-10.621-2.318h10.243l12.353-9.179a2.2,2.2,0,0,1,1.334-.449,2.692,2.692,0,0,1,1.485.487,4.252,4.252,0,0,1,1.032,1,4.13,4.13,0,0,1,.86,2.328v30.69a4,4,0,0,1-.716,2.129,4.325,4.325,0,0,1-1.071,1.121,2.762,2.762,0,0,1-1.592.547,2.279,2.279,0,0,1-1.288-.4l-13.59-9.088c-.046-.03-.111-.071-.193-.119h-8.859a4.066,4.066,0,0,1-4.059-4.059v-10.947a4.069,4.069,0,0,1,4.059-4.061" transform="translate(-1209.83 -3062.724)" fill="#00b9f2"/>
</svg>
