<svg xmlns="http://www.w3.org/2000/svg" width="48.585" height="52.11" viewBox="0 0 48.585 52.11">
  <path id="Path_54136" data-name="Path 54136" d="M1881.2,3058.118a1.152,1.152,0,0,1-2-1.148l1.877-3.251a1.152,1.152,0,0,1,2,1.148Zm-9.533-3.172a1.157,1.157,0,0,1-2.314,0v-3.753a1.157,1.157,0,0,1,2.314,0Zm-9.849,2.024a1.152,1.152,0,0,1-2,1.148l-1.876-3.25a1.152,1.152,0,0,1,2-1.149Zm-7.52,6.671a1.152,1.152,0,1,1-1.149,2l-3.25-1.877a1.152,1.152,0,1,1,1.148-2Zm-3.172,9.533a1.157,1.157,0,0,1,0,2.314h-3.753a1.157,1.157,0,0,1,0-2.314Zm-.082,13.723a1.152,1.152,0,1,1-1.148-2l3.251-1.876a1.152,1.152,0,1,1,1.148,2Zm40.075-2a1.152,1.152,0,1,1-1.149,2l-3.25-1.876a1.152,1.152,0,0,1,1.148-2Zm2.525-11.726a1.157,1.157,0,1,1,0,2.314h-3.752a1.157,1.157,0,0,1,0-2.314Zm-5.773-7.536a1.152,1.152,0,1,1-1.148-2l3.25-1.876a1.152,1.152,0,1,1,1.149,2Zm-22.69,22.766c0,.012,0,0,0-.009Zm10.659,0v-.009c0,.009,0,.02,0,.009m4.533-15.763a1.153,1.153,0,1,1-2.286.3,7.991,7.991,0,0,0-7.224-6.927,1.157,1.157,0,1,1,.2-2.305,10.307,10.307,0,0,1,9.312,8.933m-15.192,16.367h10.656v-.613c0-.023,0-.011,0,0a3.7,3.7,0,0,1,2.014-3.42,12.806,12.806,0,0,0-2.113-22.542,12.876,12.876,0,0,0-2.557-.76,12.724,12.724,0,0,0-2.64-.215h-.06a12.746,12.746,0,0,0-2.646.215,12.924,12.924,0,0,0-2.557.76,12.8,12.8,0,0,0-2.113,22.542c2.105,1.376,2.037,2.977,2.014,3.42,0-.011,0-.023,0,0v.613Zm10.659,5.948h-10.656v.719a.557.557,0,0,0,.167.4l0,0,0,0a.556.556,0,0,0,.4.162h9.529a.566.566,0,0,0,.362-.13l.035-.037a.561.561,0,0,0,.167-.4Zm-10.659-2.313h10.656v-1.322h-10.656Zm6.714,6.579a2.092,2.092,0,0,0,.45-.67H1868.5a2.089,2.089,0,0,0,3.348.721Zm2.851-.669a4.395,4.395,0,0,1-1.215,2.306l-.075.069a4.4,4.4,0,0,1-7.358-2.374h-.353a2.874,2.874,0,0,1-2.031-.846l0,0a2.869,2.869,0,0,1-.844-2.033v-1.368a1.158,1.158,0,0,1,0-1.017v-4.9l.006-.109c.008-.15.036-.716-.975-1.376a15.609,15.609,0,1,1,17.218,0c-1.011.661-.983,1.226-.975,1.376l.007.109v7.282a2.867,2.867,0,0,1-.845,2.033c-.027.027-.056.053-.084.077a2.868,2.868,0,0,1-1.948.767h-.527Z" transform="translate(-1846.217 -3050.036)" fill="#00b9f2"/>
</svg>
