<svg xmlns="http://www.w3.org/2000/svg" width="48.585" height="37.456" viewBox="0 0 48.585 37.456">
  <path id="Path_54138" data-name="Path 54138" d="M627.457,3321.828H585.128a.814.814,0,0,0-.575.24l0,0,0,0a.81.81,0,0,0-.236.574v12.872a.808.808,0,0,0,.2.535l.041.04a.815.815,0,0,0,.575.24h42.329a.817.817,0,0,0,.575-.24l0,0,0,0a.812.812,0,0,0,.236-.575v-12.873a.811.811,0,0,0-.2-.535l-.041-.039a.817.817,0,0,0-.575-.24m-42.329-2.318h42.329a3.117,3.117,0,0,1,2.21.918c.026.026.051.053.074.081a3.116,3.116,0,0,1,.844,2.129v12.872a3.123,3.123,0,0,1-.92,2.209l0,0a3.119,3.119,0,0,1-2.21.918H585.128a3.118,3.118,0,0,1-2.21-.918c-.026-.026-.051-.053-.074-.081a3.116,3.116,0,0,1-.844-2.129v-12.872a3.123,3.123,0,0,1,.92-2.208l0,0a3.127,3.127,0,0,1,2.21-.918m2.46,13.859a1.157,1.157,0,1,1,0-2.313H624.93a1.157,1.157,0,1,1,0,2.313Zm24.543,23.343a1.154,1.154,0,0,1-1.446-1.8,3.781,3.781,0,0,0,.3-.272,3.2,3.2,0,0,0,.953-2.037,2.975,2.975,0,0,0-.662-2.076,3.4,3.4,0,0,0-.249-.278,5.844,5.844,0,0,1-.43-.478,5.291,5.291,0,0,1-1.184-3.642,5.388,5.388,0,0,1,1.6-3.493,5.876,5.876,0,0,1,.492-.442,1.154,1.154,0,0,1,1.446,1.8,3.785,3.785,0,0,0-.3.271,3.1,3.1,0,0,0-.928,2,3,3,0,0,0,.677,2.061,3.475,3.475,0,0,0,.258.289,5.773,5.773,0,0,1,.421.467,5.265,5.265,0,0,1,1.168,3.676,5.493,5.493,0,0,1-1.621,3.51,5.6,5.6,0,0,1-.495.445m12.062,0a1.154,1.154,0,0,1-1.446-1.8,3.593,3.593,0,0,0,.3-.272A3.193,3.193,0,0,0,624,3352.6a2.974,2.974,0,0,0-.661-2.076,3.407,3.407,0,0,0-.249-.278,5.855,5.855,0,0,1-.43-.478,5.292,5.292,0,0,1-1.183-3.642,5.388,5.388,0,0,1,1.6-3.493,5.973,5.973,0,0,1,.492-.442,1.154,1.154,0,0,1,1.446,1.8,3.784,3.784,0,0,0-.3.271,3.1,3.1,0,0,0-.928,2,3,3,0,0,0,.678,2.061,3.37,3.37,0,0,0,.258.289,6.012,6.012,0,0,1,.421.467,5.265,5.265,0,0,1,1.168,3.676,5.5,5.5,0,0,1-1.621,3.51,5.674,5.674,0,0,1-.495.445m-24.123,0a1.154,1.154,0,0,1-1.446-1.8,3.7,3.7,0,0,0,.3-.272,3.2,3.2,0,0,0,.953-2.037,2.972,2.972,0,0,0-.662-2.076,3.28,3.28,0,0,0-.249-.278,5.854,5.854,0,0,1-.43-.478,5.293,5.293,0,0,1-1.184-3.642,5.388,5.388,0,0,1,1.6-3.493,5.876,5.876,0,0,1,.492-.442,1.154,1.154,0,0,1,1.446,1.8,3.691,3.691,0,0,0-.3.271,3.093,3.093,0,0,0-.928,2,3,3,0,0,0,.678,2.061,3.39,3.39,0,0,0,.258.289,5.87,5.87,0,0,1,.42.467,5.269,5.269,0,0,1,1.168,3.676,5.5,5.5,0,0,1-1.621,3.51,5.682,5.682,0,0,1-.495.445m-12.062,0a1.154,1.154,0,0,1-1.446-1.8,3.624,3.624,0,0,0,.3-.272,3.194,3.194,0,0,0,.953-2.037,2.974,2.974,0,0,0-.661-2.076,3.4,3.4,0,0,0-.249-.278,5.958,5.958,0,0,1-.43-.478,5.292,5.292,0,0,1-1.183-3.642,5.387,5.387,0,0,1,1.6-3.493,5.954,5.954,0,0,1,.492-.442,1.154,1.154,0,0,1,1.446,1.8,3.8,3.8,0,0,0-.3.271,3.092,3.092,0,0,0-.928,2,3,3,0,0,0,.677,2.061,3.38,3.38,0,0,0,.258.289,6.014,6.014,0,0,1,.421.467,5.266,5.266,0,0,1,1.168,3.676,5.5,5.5,0,0,1-1.621,3.51,5.6,5.6,0,0,1-.495.445" transform="translate(-582 -3319.51)" fill="#00b9f2"/>
</svg>
