<svg xmlns="http://www.w3.org/2000/svg" width="48.583" height="27.079" viewBox="0 0 48.583 27.079">
  <path id="Path_54137" data-name="Path 54137" d="M1863.134,3323.968v.262h27.416v-.262a1.4,1.4,0,0,0-.365-.945l-.047-.045a1.4,1.4,0,0,0-.99-.413h-24.61a1.4,1.4,0,0,0-1.4,1.4m0,5.893,8.526-2.455.073-.018a5.434,5.434,0,0,1,4.942.961,4.116,4.116,0,0,1,1.2,1.705,3.852,3.852,0,0,1,.156,2.1,5.427,5.427,0,0,1-3.4,3.72c-.042.018-.084.034-.127.048l-10.634,3.377-.406.345.065.062a1.422,1.422,0,0,0,.466.319,1.376,1.376,0,0,0,.542.107h24.61a1.4,1.4,0,0,0,.99-.414l0,0,0,0a1.394,1.394,0,0,0,.408-.989v-12.19h-27.416v3.322Zm7.737,12.781,0-.2h-3.208l-.016.625,0,.076a.963.963,0,0,0,.4.721,1.923,1.923,0,0,0,1.112.415l.076,0a1.6,1.6,0,0,0,1.137-.47,1.657,1.657,0,0,0,.492-1.167m-6.285,0,0-.2h-.052a3.724,3.724,0,0,1-2.661-1.132,1.193,1.193,0,0,1-.169-.22l-.3.233-.046,1.744,0,.076a.964.964,0,0,0,.4.721,1.921,1.921,0,0,0,1.113.415l.076,0a1.6,1.6,0,0,0,1.137-.471,1.66,1.66,0,0,0,.492-1.168m12.732,0a1.232,1.232,0,0,1,.019-.2h-3.224l-.016.625,0,.076a.963.963,0,0,0,.4.721,1.921,1.921,0,0,0,1.113.415l.075,0a1.6,1.6,0,0,0,1.137-.47,1.659,1.659,0,0,0,.491-1.167m-31.456-14.8a1.154,1.154,0,0,1-.859-2.142l15.259-6.1a1.142,1.142,0,0,1,.727-.044v0l2.843.762a3.7,3.7,0,0,1,.7-.067h24.61a3.706,3.706,0,0,1,2.625,1.091,1.036,1.036,0,0,1,.072.079,3.706,3.706,0,0,1,1.019,2.547v14.766a3.711,3.711,0,0,1-1.093,2.623l0,0a3.7,3.7,0,0,1-2.625,1.091H1879.6a1.129,1.129,0,0,1,.019.224,3.976,3.976,0,0,1-1.161,2.776,3.9,3.9,0,0,1-2.773,1.149q-.06,0-.119-.006a4.277,4.277,0,0,1-2.524-.931,3.66,3.66,0,0,1-.642-.668,3.926,3.926,0,0,1-3.164,1.6c-.04,0-.079,0-.119-.006a4.28,4.28,0,0,1-2.524-.931,3.729,3.729,0,0,1-.56-.562,4.09,4.09,0,0,1-.309.35,3.9,3.9,0,0,1-2.773,1.148c-.04,0-.079,0-.119-.006a4.278,4.278,0,0,1-2.524-.93,3.222,3.222,0,0,1-1.261-2.51,1.107,1.107,0,0,1,.007-.121v-.033c-2.349,1.418-3.945,1.427-7.449,1.443-1.242.006-2.748.013-4.7.1a1.153,1.153,0,1,1-.1-2.3c1.941-.086,3.5-.095,4.791-.1,4.676-.022,5.423-.026,10.892-4.7a1.145,1.145,0,0,1,.459-.274l10.794-3.427a3.2,3.2,0,0,0,2.019-2.035,1.565,1.565,0,0,0-.066-.851,1.814,1.814,0,0,0-.528-.747,3.188,3.188,0,0,0-2.886-.472l-12.311,3.544a1.156,1.156,0,1,1-.633-2.223l1.476-.424v-6.564a3.679,3.679,0,0,1,.539-1.92l-.6-.16Z" transform="translate(-1844.279 -3319.514)" fill="#00b9f2"/>
</svg>
