<svg id="Component_7_2" data-name="Component 7 – 2" xmlns="http://www.w3.org/2000/svg" width="132" height="25.626" viewBox="0 0 132 25.626">
  <path id="Union_8" data-name="Union 8" d="M8.528,24.925V.7A12.462,12.462,0,0,1,10.315.223L12.95,25.616c-.1,0-.208.01-.31.01A12.42,12.42,0,0,1,8.528,24.925ZM12.344.01c.1,0,.208-.01.311-.01a12.846,12.846,0,0,1,9.464,21.3,12.508,12.508,0,0,1-7.14,4.1ZM.024,13.595A12.849,12.849,0,0,1,6.489,1.616V24A12.825,12.825,0,0,1,.024,13.595Zm50.94-.487c0-5.243,3.768-9.014,9.216-9.014a8.8,8.8,0,0,1,9.034,9.014v1.38H56.094c.409,2.484,2.088,3.771,4.858,3.771a9.056,9.056,0,0,0,5.584-1.977l2.406,2.99a12.639,12.639,0,0,1-8.081,2.852C54.642,22.122,50.965,18.351,50.965,13.108Zm5.266-1.839h7.808a3.977,3.977,0,0,0-7.808,0Zm57.393,9.918a8.608,8.608,0,0,1-2.926-1.775,8.318,8.318,0,0,1-1.956-2.774,8.87,8.87,0,0,1-.714-3.618,8.873,8.873,0,0,1,.714-3.619A8.33,8.33,0,0,1,110.7,6.627a8.621,8.621,0,0,1,2.926-1.775,10.7,10.7,0,0,1,7.177,0,8.618,8.618,0,0,1,2.925,1.775A8.331,8.331,0,0,1,125.682,9.4a8.882,8.882,0,0,1,.714,3.619,8.877,8.877,0,0,1-.714,3.618,8.32,8.32,0,0,1-1.956,2.774,8.616,8.616,0,0,1-2.925,1.775,10.7,10.7,0,0,1-7.177,0ZM114.2,9.952a4.368,4.368,0,0,0-1.071,3.067,4.365,4.365,0,0,0,1.071,3.067,4.453,4.453,0,0,0,6.021,0,4.367,4.367,0,0,0,1.071-3.067,4.371,4.371,0,0,0-1.071-3.067,4.453,4.453,0,0,0-6.021,0ZM76.333,21.2a4.518,4.518,0,0,1-1.871-1.671,6.6,6.6,0,0,1-.884-2.516,20.736,20.736,0,0,1-.221-3.135V4.646h5.1v8.2q0,.723.051,1.5a4.76,4.76,0,0,0,.306,1.43,2.471,2.471,0,0,0,.782,1.068,2.406,2.406,0,0,0,1.514.413,3.109,3.109,0,0,0,1.6-.362,2.453,2.453,0,0,0,.936-.965,3.99,3.99,0,0,0,.425-1.361,11.814,11.814,0,0,0,.1-1.585V4.646h5.1V21.393h-4.9V19.119H84.31a5.73,5.73,0,0,1-.7.965,4.584,4.584,0,0,1-1.037.862,6.025,6.025,0,0,1-1.395.621,5.775,5.775,0,0,1-1.7.241A7.061,7.061,0,0,1,76.333,21.2Zm-44.843.19V4.646h4.9V6.92h.068a4.178,4.178,0,0,1,.68-.965,4.971,4.971,0,0,1,1.054-.862,6.014,6.014,0,0,1,1.395-.62,5.771,5.771,0,0,1,1.7-.241,6.952,6.952,0,0,1,3.13.6A4.547,4.547,0,0,1,46.27,6.506a6.8,6.8,0,0,1,.9,2.516,19.364,19.364,0,0,1,.239,3.135v9.235h-5.1v-8.2q0-.723-.051-1.5a4.76,4.76,0,0,0-.306-1.43,2.463,2.463,0,0,0-.782-1.068,2.407,2.407,0,0,0-1.514-.413,3.111,3.111,0,0,0-1.6.362,2.457,2.457,0,0,0-.936.965,3.986,3.986,0,0,0-.425,1.361,11.821,11.821,0,0,0-.1,1.585v8.34Zm63.432,0V4.646h5.1V7.333h.068a6.34,6.34,0,0,1,1.939-2.326,4.855,4.855,0,0,1,2.823-.775c.294,0,.59.012.884.034a4.335,4.335,0,0,1,.816.138V9.125a7.635,7.635,0,0,0-1.071-.258,6.938,6.938,0,0,0-1.106-.086,5.366,5.366,0,0,0-2.313.413,3.088,3.088,0,0,0-1.31,1.155,4.429,4.429,0,0,0-.6,1.775,17.485,17.485,0,0,0-.136,2.274v7ZM125.773,3.154a3.113,3.113,0,1,1,6.226,0,3.113,3.113,0,1,1-6.226,0Zm.3,0A2.817,2.817,0,1,0,128.887.3,2.839,2.839,0,0,0,126.07,3.154Zm3.613,1.712-.816-1.172h-.73V4.866h-.583V1.5h1.48a1.329,1.329,0,0,1,.958.336,1.025,1.025,0,0,1,.275.726v.01a1.007,1.007,0,0,1-.788,1.019l.9,1.273Zm-1.547-1.7h.853c.418,0,.683-.221.683-.563V2.6c0-.361-.256-.557-.688-.557h-.849Z" fill="#00b9f2"/>
</svg>
