<svg xmlns="http://www.w3.org/2000/svg" width="203" height="40.626" viewBox="0 0 203 40.626">
  <g id="neuro2020" transform="translate(-335.384 -419.53)">
    <path id="Path_1" data-name="Path 1" d="M335.423,441.082a20.353,20.353,0,0,1,10.383-18.99v35.479a20.309,20.309,0,0,1-10.383-16.489m13.659,17.963v-38.41a20.381,20.381,0,0,1,2.87-.753l4.231,40.257c-.166,0-.334.016-.5.016a20.177,20.177,0,0,1-6.6-1.111m21.827-5.744a20.154,20.154,0,0,1-11.467,6.5l-4.231-40.257c.166,0,.334-.015.5-.015a20.312,20.312,0,0,1,15.2,33.771" transform="translate(0 0)" fill="#fff"/>
    <path id="Path_2" data-name="Path 2" d="M443.45,434.522h7.867v3.605h.109a6.635,6.635,0,0,1,1.093-1.53,7.968,7.968,0,0,1,1.693-1.366,9.72,9.72,0,0,1,2.24-.984,9.368,9.368,0,0,1,2.732-.382,11.3,11.3,0,0,1,5.026.956,7.28,7.28,0,0,1,2.977,2.65,10.716,10.716,0,0,1,1.448,3.988,30.326,30.326,0,0,1,.383,4.971v14.641h-8.195v-13q0-1.147-.082-2.377a7.51,7.51,0,0,0-.491-2.267,3.525,3.525,0,0,0-3.688-2.349,5.056,5.056,0,0,0-2.568.574,3.917,3.917,0,0,0-1.5,1.53,6.252,6.252,0,0,0-.683,2.158,18.633,18.633,0,0,0-.164,2.513v13.221H443.45Z" transform="translate(-57.49 -7.627)" fill="#fff"/>
    <path id="Path_3" data-name="Path 3" d="M612.691,461.817h-7.867v-3.606h-.109a9.07,9.07,0,0,1-1.12,1.53,7.327,7.327,0,0,1-1.666,1.366,9.7,9.7,0,0,1-2.24.984,9.374,9.374,0,0,1-2.732.382,11.48,11.48,0,0,1-5.054-.956,7.228,7.228,0,0,1-3-2.65,10.38,10.38,0,0,1-1.42-3.988,32.495,32.495,0,0,1-.355-4.971V435.267h8.195v13q0,1.147.082,2.377a7.491,7.491,0,0,0,.492,2.267,3.524,3.524,0,0,0,3.688,2.349,5.055,5.055,0,0,0,2.567-.574,3.912,3.912,0,0,0,1.5-1.53,6.254,6.254,0,0,0,.683-2.158,18.621,18.621,0,0,0,.164-2.513V435.267h8.194v26.55Z" transform="translate(-133.924 -8.372)" fill="#fff"/>
    <path id="Path_4" data-name="Path 4" d="M661.13,434.522h8.195v4.261h.109a10.073,10.073,0,0,1,3.114-3.687,7.868,7.868,0,0,1,4.534-1.229q.709,0,1.42.054a7.035,7.035,0,0,1,1.311.219v7.484a12.416,12.416,0,0,0-1.721-.409,11.238,11.238,0,0,0-1.776-.137,8.711,8.711,0,0,0-3.715.655,4.933,4.933,0,0,0-2.1,1.83,6.953,6.953,0,0,0-.956,2.813,27.347,27.347,0,0,0-.219,3.606v11.09h-8.195v-26.55Z" transform="translate(-173.294 -7.627)" fill="#fff"/>
    <path id="Path_5" data-name="Path 5" d="M706.107,447.8a13.91,13.91,0,0,1,1.147-5.737,13.2,13.2,0,0,1,3.141-4.4,13.889,13.889,0,0,1,4.7-2.814,17.382,17.382,0,0,1,11.526,0,13.878,13.878,0,0,1,4.7,2.814,13.216,13.216,0,0,1,3.141,4.4,14.918,14.918,0,0,1,0,11.473,13.2,13.2,0,0,1-3.141,4.4,13.881,13.881,0,0,1-4.7,2.814,17.382,17.382,0,0,1-11.526,0,13.854,13.854,0,0,1-4.7-2.814,13.183,13.183,0,0,1-3.141-4.4,13.912,13.912,0,0,1-1.147-5.736m8.195,0a6.87,6.87,0,0,0,1.721,4.862,7.221,7.221,0,0,0,9.669,0,7.73,7.73,0,0,0,0-9.725,7.221,7.221,0,0,0-9.669,0A6.873,6.873,0,0,0,714.3,447.8" transform="translate(-197.222 -7.627)" fill="#fff"/>
    <path id="Path_6" data-name="Path 6" d="M526.176,461.978c-9.989,0-15.895-5.979-15.895-14.291s6.051-14.291,14.8-14.291c8.239,0,14.51,6.052,14.51,14.291v2.187H518.52c.657,3.937,3.354,5.978,7.8,5.978a14.661,14.661,0,0,0,8.968-3.135l3.864,4.739a20.46,20.46,0,0,1-12.978,4.52m-7.437-17.207h12.541c-.8-3.208-2.917-5.1-6.271-5.1-3.281,0-5.469,1.9-6.27,5.1" transform="translate(-93.044 -7.377)" fill="#fff"/>
  </g>
</svg>
